<svg width="60" height="60" viewBox="0 0 60 60" fill="none" xmlns="http://www.w3.org/2000/svg">
<path d="M7.5 12.5C7.5 9.73858 9.73858 7.5 12.5 7.5H22.5H37.5H41.4645C42.7906 7.5 44.0623 8.02678 45 8.96447L51.7678 15.7322C52.2366 16.2011 52.5 16.837 52.5 17.5V47.5C52.5 50.2614 50.2614 52.5 47.5 52.5H37.5H22.5H12.5C9.73858 52.5 7.5 50.2614 7.5 47.5V12.5ZM22.5 47.5H37.5V32.5H22.5V47.5ZM42.5 47.5H47.5V18.5355L42.5 13.5355V17.5C42.5 20.2614 40.2614 22.5 37.5 22.5H22.5C19.7386 22.5 17.5 20.2614 17.5 17.5V12.5H12.5V47.5H17.5V32.5C17.5 29.7386 19.7386 27.5 22.5 27.5H37.5C40.2614 27.5 42.5 29.7386 42.5 32.5V47.5ZM22.5 12.5V17.5H37.5V12.5H22.5Z" fill="#999999"/>
</svg>
